<svg xmlns="http://www.w3.org/2000/svg" viewBox="0 0 1200 900" role="img" aria-labelledby="title desc">
<title id="title">Darende drone çekimi konsept görseli</title><desc id="desc">Darende Ajans için özgün vektörel konsept görsel</desc>
<defs>
 <linearGradient id="bg" x1="0" y1="0" x2="1" y2="1"><stop stop-color="#11151E"/><stop offset="1" stop-color="#080A0F"/></linearGradient>
 <radialGradient id="glow"><stop stop-color="#38BDF8" stop-opacity=".75"/><stop offset="1" stop-color="#38BDF8" stop-opacity="0"/></radialGradient>
 <linearGradient id="accent" x1="0" y1="0" x2="1" y2="1"><stop stop-color="#38BDF8"/><stop offset="1" stop-color="#D9A441"/></linearGradient>
 <filter id="shadow"><feDropShadow dx="0" dy="28" stdDeviation="25" flood-color="#000" flood-opacity=".45"/></filter>
</defs>
<rect width="1200" height="900" rx="60" fill="url(#bg)"/>
<circle cx="220" cy="180" r="360" fill="url(#glow)" opacity=".25"/>
<circle cx="1000" cy="760" r="310" fill="url(#glow)" opacity=".14"/>
<path d="M0 710 Q220 610 410 690 T820 650 T1200 700 V900 H0Z" fill="#151B25"/>
<g filter="url(#shadow)">
<g transform="translate(80 95)"><path d="M0 650L190 350l160 190 130-250 220 360z" fill="#263444"/><path d="M320 650L520 420l130 140 105-190 230 280z" fill="#1B2836"/><path d="M70 650c180-95 310 85 500-20 145-80 278-52 420 10v105H70z" fill="#0C4853"/><path d="M115 635c165-78 296 58 468-26 155-76 290-42 375 0" fill="none" stroke="#38BDF8" stroke-width="18" opacity=".7"/><g transform="translate(370 80)"><path d="M85 65h190" stroke="#F8F5EF" stroke-width="16" stroke-linecap="round"/><path d="M180 5v120" stroke="#F8F5EF" stroke-width="16" stroke-linecap="round"/><rect x="115" y="35" width="130" height="62" rx="24" fill="#101722" stroke="#F47721" stroke-width="9"/><path d="M10 45l105 20M350 45l-105 20M25 150l115-65M335 150l-115-65" stroke="#D9A441" stroke-width="9" stroke-linecap="round"/><g fill="none" stroke="#fff" stroke-opacity=".48" stroke-width="8"><circle cx="10" cy="45" r="28"/><circle cx="350" cy="45" r="28"/><circle cx="25" cy="150" r="28"/><circle cx="335" cy="150" r="28"/></g><rect x="152" y="93" width="56" height="42" rx="12" fill="#4E8BFF"/></g><path d="M538 270c180 100 245 215 300 350" fill="none" stroke="#F47721" stroke-width="5" stroke-dasharray="18 20"/><circle cx="840" cy="618" r="14" fill="#F47721"/></g></g>
<rect x="40" y="40" width="1120" height="820" rx="44" fill="none" stroke="#fff" stroke-opacity=".08"/>
</svg>