<svg xmlns="http://www.w3.org/2000/svg" viewBox="0 0 1200 900" role="img" aria-labelledby="title desc">
<title id="title">Google Ads kampanya paneli görseli</title><desc id="desc">Darende Ajans için özgün vektörel konsept görsel</desc>
<defs>
 <linearGradient id="bg" x1="0" y1="0" x2="1" y2="1"><stop stop-color="#11151E"/><stop offset="1" stop-color="#080A0F"/></linearGradient>
 <radialGradient id="glow"><stop stop-color="#4E8BFF" stop-opacity=".75"/><stop offset="1" stop-color="#4E8BFF" stop-opacity="0"/></radialGradient>
 <linearGradient id="accent" x1="0" y1="0" x2="1" y2="1"><stop stop-color="#4E8BFF"/><stop offset="1" stop-color="#D9A441"/></linearGradient>
 <filter id="shadow"><feDropShadow dx="0" dy="28" stdDeviation="25" flood-color="#000" flood-opacity=".45"/></filter>
</defs>
<rect width="1200" height="900" rx="60" fill="url(#bg)"/>
<circle cx="220" cy="180" r="360" fill="url(#glow)" opacity=".25"/>
<circle cx="1000" cy="760" r="310" fill="url(#glow)" opacity=".14"/>
<path d="M0 710 Q220 610 410 690 T820 650 T1200 700 V900 H0Z" fill="#151B25"/>
<g filter="url(#shadow)">
<g transform="translate(140 135)"><rect x="70" y="60" width="760" height="520" rx="34" fill="#0E1219" stroke="#fff" stroke-opacity=".16"/><rect x="105" y="100" width="180" height="440" rx="22" fill="#151C27"/><rect x="135" y="135" width="110" height="18" rx="9" fill="#4E8BFF"/><g fill="#fff" opacity=".14"><rect x="135" y="190" width="90" height="12" rx="6"/><rect x="135" y="235" width="100" height="12" rx="6"/><rect x="135" y="280" width="80" height="12" rx="6"/><rect x="135" y="325" width="95" height="12" rx="6"/></g><g transform="translate(325 110)"><rect width="220" height="130" rx="22" fill="#192231"/><rect x="25" y="28" width="80" height="12" rx="6" fill="#fff" opacity=".18"/><text x="25" y="95" fill="#F8F5EF" font-family="Arial" font-size="42" font-weight="700">42</text><rect x="250" width="220" height="130" rx="22" fill="#192231"/><rect x="275" y="28" width="105" height="12" rx="6" fill="#fff" opacity=".18"/><text x="275" y="95" fill="#D9A441" font-family="Arial" font-size="42" font-weight="700">₺</text><rect y="165" width="470" height="260" rx="22" fill="#151D29"/><path d="M35 360l85-75 70 32 82-110 65 48 85-120" fill="none" stroke="url(#accent)" stroke-width="13" stroke-linecap="round"/><circle cx="422" cy="135" r="13" fill="#F47721"/></g></g></g>
<rect x="40" y="40" width="1120" height="820" rx="44" fill="none" stroke="#fff" stroke-opacity=".08"/>
</svg>