<svg xmlns="http://www.w3.org/2000/svg" viewBox="0 0 1200 900" role="img" aria-labelledby="title desc">
<title id="title">Instagram ve sosyal medya reklam görseli</title><desc id="desc">Darende Ajans için özgün vektörel konsept görsel</desc>
<defs>
 <linearGradient id="bg" x1="0" y1="0" x2="1" y2="1"><stop stop-color="#11151E"/><stop offset="1" stop-color="#080A0F"/></linearGradient>
 <radialGradient id="glow"><stop stop-color="#8B5CF6" stop-opacity=".75"/><stop offset="1" stop-color="#8B5CF6" stop-opacity="0"/></radialGradient>
 <linearGradient id="accent" x1="0" y1="0" x2="1" y2="1"><stop stop-color="#8B5CF6"/><stop offset="1" stop-color="#D9A441"/></linearGradient>
 <filter id="shadow"><feDropShadow dx="0" dy="28" stdDeviation="25" flood-color="#000" flood-opacity=".45"/></filter>
</defs>
<rect width="1200" height="900" rx="60" fill="url(#bg)"/>
<circle cx="220" cy="180" r="360" fill="url(#glow)" opacity=".25"/>
<circle cx="1000" cy="760" r="310" fill="url(#glow)" opacity=".14"/>
<path d="M0 710 Q220 610 410 690 T820 650 T1200 700 V900 H0Z" fill="#151B25"/>
<g filter="url(#shadow)">
<g transform="translate(140 110)"><rect x="270" y="40" width="360" height="650" rx="55" fill="#0D1118" stroke="#fff" stroke-opacity=".2"/><rect x="296" y="90" width="308" height="520" rx="30" fill="#161E2A"/><rect x="325" y="120" width="250" height="250" rx="28" fill="url(#accent)" opacity=".86"/><circle cx="450" cy="245" r="72" fill="#0B0D12" opacity=".55"/><path d="M425 200l80 45-80 45z" fill="#F8F5EF"/><rect x="325" y="400" width="220" height="18" rx="9" fill="#fff" opacity=".24"/><rect x="325" y="438" width="155" height="12" rx="6" fill="#fff" opacity=".12"/><g transform="translate(305 635)"><circle cx="40" cy="0" r="18" fill="#E75A89"/><path d="M33-3l7 7 14-17" fill="none" stroke="#fff" stroke-width="5"/><circle cx="120" cy="0" r="18" fill="#4E8BFF"/><path d="M111 3h18M120-6v18" stroke="#fff" stroke-width="4"/><circle cx="200" cy="0" r="18" fill="#D9A441"/><path d="M192 0h16" stroke="#fff" stroke-width="4"/></g><g transform="translate(30 180)"><rect width="210" height="310" rx="28" fill="#141B26" stroke="#fff" stroke-opacity=".1"/><circle cx="105" cy="95" r="58" fill="#E75A89" opacity=".68"/><rect x="35" y="185" width="140" height="14" rx="7" fill="#fff" opacity=".18"/><rect x="35" y="220" width="100" height="11" rx="5" fill="#fff" opacity=".1"/></g><g transform="translate(660 230)"><rect width="210" height="310" rx="28" fill="#141B26" stroke="#fff" stroke-opacity=".1"/><rect x="50" y="45" width="110" height="110" rx="28" fill="#4E8BFF" opacity=".68"/><rect x="35" y="185" width="140" height="14" rx="7" fill="#fff" opacity=".18"/><rect x="35" y="220" width="100" height="11" rx="5" fill="#fff" opacity=".1"/></g></g></g>
<rect x="40" y="40" width="1120" height="820" rx="44" fill="none" stroke="#fff" stroke-opacity=".08"/>
</svg>